<svg 
 xmlns="http://www.w3.org/2000/svg"
 xmlns:xlink="http://www.w3.org/1999/xlink"
 width="30px" height="29px">
<path fill-rule="evenodd"  fill-opacity="0" fill="rgb(116, 116, 116)"
 d="M-0.000,0.000 L30.000,0.000 L30.000,29.000 L-0.000,29.000 L-0.000,0.000 Z"/>
<path fill-rule="evenodd"  fill="rgb(156, 151, 128)"
 d="M29.961,19.380 C29.961,20.178 29.302,20.824 28.488,20.824 L1.476,20.804 C0.663,20.804 0.003,20.158 0.003,19.361 L0.038,14.168 C0.038,13.371 0.697,12.725 1.511,12.725 C2.100,12.725 2.632,12.382 2.864,11.851 L5.298,6.637 C5.308,6.614 5.317,6.589 5.326,6.566 C6.078,4.467 8.101,3.059 10.375,3.059 L19.836,3.059 C22.172,3.059 24.238,4.544 24.940,6.727 L27.080,11.832 C27.303,12.383 27.846,12.745 28.450,12.745 L28.523,12.745 C29.336,12.745 29.996,13.391 29.996,14.188 L29.961,19.380 ZM5.307,14.102 C4.417,14.102 3.695,14.810 3.695,15.683 C3.695,16.555 4.417,17.263 5.307,17.263 C6.198,17.263 6.920,16.555 6.920,15.683 C6.920,14.810 6.198,14.102 5.307,14.102 ZM22.387,7.230 C22.087,6.469 21.340,5.966 20.508,5.968 L9.650,5.972 C8.851,5.972 8.127,6.436 7.806,7.153 L6.194,10.758 L23.787,10.783 L22.387,7.230 ZM24.666,14.102 C23.775,14.102 23.053,14.810 23.053,15.683 C23.053,16.555 23.775,17.263 24.666,17.263 C25.556,17.263 26.278,16.555 26.278,15.683 C26.278,14.810 25.556,14.102 24.666,14.102 ZM6.944,24.286 C6.944,24.686 6.612,25.010 6.204,25.010 L4.410,25.010 C4.002,25.010 3.671,24.686 3.671,24.286 L3.671,21.803 L6.944,21.803 L6.944,24.286 ZM26.302,24.286 C26.302,24.686 25.971,25.010 25.562,25.010 L23.769,25.010 C23.360,25.010 23.029,24.686 23.029,24.286 L23.029,21.803 L26.302,21.803 L26.302,24.286 Z"/>
</svg>