<svg 
 xmlns="http://www.w3.org/2000/svg"
 xmlns:xlink="http://www.w3.org/1999/xlink"
 width="26px" height="29px">
<path fill-rule="evenodd"  fill="rgb(156, 151, 128)"
 d="M24.744,18.725 L15.768,15.552 L16.209,10.594 L24.674,16.757 C25.002,16.996 25.196,17.376 25.196,17.782 L25.196,18.406 C25.196,18.640 24.965,18.803 24.744,18.725 ZM13.940,24.612 L16.765,27.432 C16.983,27.649 17.106,27.944 17.106,28.252 L17.106,28.535 C17.106,28.778 16.852,28.941 16.630,28.838 L13.439,27.368 C13.279,27.507 13.070,27.591 12.843,27.591 L12.649,27.591 L12.454,27.591 C12.165,27.591 11.906,27.456 11.739,27.244 L8.277,28.838 C8.054,28.941 7.801,28.778 7.801,28.535 L7.801,28.252 C7.801,27.944 7.924,27.649 8.142,27.432 L11.325,24.254 L9.776,6.852 C9.703,5.736 9.914,4.620 10.388,3.607 L11.293,1.189 C11.830,0.041 13.467,0.041 14.004,1.189 L14.909,3.607 C15.383,4.620 15.594,5.736 15.521,6.852 L13.940,24.612 ZM-0.005,18.406 L-0.005,17.782 C-0.005,17.376 0.189,16.996 0.517,16.757 L9.055,10.540 L9.499,15.526 L0.446,18.725 C0.226,18.803 -0.005,18.640 -0.005,18.406 Z"/>
</svg>