<svg 
 xmlns="http://www.w3.org/2000/svg"
 xmlns:xlink="http://www.w3.org/1999/xlink"
 width="132px" height="122px">
<path fill-rule="evenodd"  fill-opacity="0" fill="rgb(255, 216, 57)"
 d="M-0.000,-0.000 L132.000,-0.000 L132.000,121.999 L-0.000,121.999 L-0.000,-0.000 Z"/>
<path fill-rule="evenodd"  fill="rgb(26, 25, 21)"
 d="M125.035,93.469 C124.949,95.956 123.349,101.115 117.957,102.184 C117.812,102.214 116.045,102.229 116.045,102.229 L119.867,117.486 C120.173,118.694 119.436,119.918 118.221,120.221 C118.039,120.267 117.855,120.291 117.673,120.291 C116.658,120.291 115.735,119.607 115.482,118.580 L111.373,102.182 C111.188,102.192 95.052,102.229 95.052,102.229 L95.052,116.464 C94.861,118.521 93.240,121.991 88.383,121.991 C83.920,121.991 81.957,118.718 81.541,116.991 C81.499,116.817 81.480,116.640 81.480,116.463 L81.480,100.108 C81.218,97.764 81.764,94.014 84.409,90.941 L44.904,90.941 C47.517,94.025 47.919,97.790 47.546,100.163 C47.546,100.163 47.527,116.816 47.482,116.990 C47.067,118.717 45.103,121.989 40.641,121.989 C35.784,121.989 34.159,118.520 33.983,116.681 L33.973,102.229 C33.973,102.229 16.412,102.219 16.293,102.200 C15.984,102.148 15.727,102.049 15.437,101.980 L11.281,118.580 C11.024,119.606 10.102,120.291 9.089,120.291 C8.910,120.291 8.722,120.267 8.540,120.221 C7.327,119.919 6.590,118.694 6.894,117.486 L11.271,100.015 C8.769,98.026 7.695,95.248 7.496,93.560 L5.010,67.448 C4.890,66.208 5.805,65.107 7.047,64.987 C8.296,64.833 9.394,65.781 9.515,67.022 L11.997,93.086 C12.044,93.409 12.646,96.708 16.490,97.613 C15.674,95.661 15.624,93.789 15.627,93.498 L15.604,75.883 C15.633,75.413 16.169,68.710 19.953,64.617 C16.314,61.228 14.116,56.459 14.116,51.323 C14.116,41.292 22.296,33.134 32.347,33.134 C42.399,33.134 50.575,41.292 50.575,51.323 C50.575,59.044 45.707,65.851 38.558,68.429 L40.141,77.398 L50.750,77.398 C51.110,77.398 51.465,77.484 51.785,77.648 C53.054,78.301 55.209,80.411 55.209,84.173 C55.209,85.002 55.090,85.750 54.902,86.430 L77.001,86.430 C76.821,85.753 76.701,85.010 76.701,84.173 C76.701,80.352 79.464,78.111 79.778,77.867 C80.176,77.563 80.661,77.398 81.161,77.398 L94.099,77.398 L96.091,68.097 C89.401,65.306 84.904,58.741 84.904,51.323 C84.904,41.292 93.079,33.134 103.131,33.134 C113.184,33.134 121.359,41.292 121.359,51.323 C121.359,57.222 118.465,62.641 113.800,66.020 C117.382,69.800 118.477,75.180 118.525,75.452 C118.552,75.590 118.567,75.739 118.567,75.882 L118.544,93.507 C118.547,93.787 118.500,95.613 117.711,97.540 C120.334,96.539 120.516,93.254 120.518,93.221 L122.491,67.068 C122.585,65.824 123.704,64.901 124.915,64.986 C126.164,65.079 127.097,66.163 127.004,67.406 L125.035,93.469 ZM49.966,81.913 L38.238,81.913 C37.141,81.913 36.203,81.127 36.012,80.048 L33.730,67.140 C33.512,65.912 34.334,64.740 35.563,64.525 C35.675,64.506 35.783,64.534 35.893,64.531 C38.265,63.901 40.333,62.654 41.990,61.006 C40.511,60.884 38.931,60.405 37.357,59.278 C36.342,58.550 36.109,57.142 36.838,56.127 C37.568,55.113 38.980,54.881 39.994,55.609 C42.433,57.350 44.642,56.215 45.292,55.805 C45.637,54.814 45.822,53.767 45.932,52.702 C45.173,52.262 44.637,51.478 44.637,50.541 C44.637,49.682 45.095,48.961 45.750,48.500 C44.445,42.311 38.929,37.645 32.343,37.645 C24.784,37.645 18.638,43.780 18.638,51.319 C18.638,56.720 21.833,61.628 26.778,63.819 C27.919,64.327 28.432,65.659 27.927,66.802 C27.422,67.940 26.085,68.459 24.939,67.948 C24.510,67.760 24.118,67.510 23.709,67.291 C21.158,69.550 20.247,74.270 20.117,76.038 L20.145,93.500 C20.153,94.200 20.334,97.713 23.338,97.713 L36.232,97.713 C37.483,97.713 38.493,98.722 38.493,99.971 L38.493,116.275 C38.604,116.764 39.040,117.475 40.639,117.475 C42.221,117.475 42.812,116.593 43.017,116.103 C43.017,116.103 43.029,99.704 43.054,99.567 C43.167,98.899 43.921,92.914 36.292,90.943 L31.363,90.943 C30.480,90.943 29.675,90.429 29.308,89.626 L25.056,80.357 C24.538,79.223 25.035,77.882 26.172,77.363 C27.311,76.842 28.650,77.343 29.169,78.475 L32.817,86.430 L40.756,86.430 L49.944,86.430 C50.256,86.064 50.680,85.349 50.680,84.173 C50.680,82.948 50.273,82.260 49.966,81.913 ZM109.306,68.085 C108.563,67.976 107.875,67.541 107.546,66.803 C107.042,65.660 107.551,64.328 108.695,63.820 C113.641,61.626 116.836,56.718 116.836,51.317 C116.836,43.778 110.686,37.642 103.130,37.642 C96.543,37.642 91.031,42.309 89.720,48.498 C90.378,48.958 90.836,49.681 90.836,50.538 C90.836,51.476 90.299,52.260 89.542,52.699 C89.652,53.768 89.837,54.816 90.183,55.805 C90.898,56.257 93.076,57.326 95.476,55.607 C96.493,54.879 97.907,55.110 98.637,56.124 C99.365,57.140 99.131,58.547 98.116,59.275 C96.541,60.402 94.964,60.883 93.482,61.004 C95.162,62.669 97.262,63.936 99.672,64.558 C100.881,64.873 101.609,66.104 101.294,67.311 C101.185,67.726 100.951,68.064 100.664,68.340 L98.139,80.123 C97.916,81.166 96.993,81.910 95.928,81.910 L82.091,81.910 C81.711,82.380 81.222,83.177 81.223,84.167 C81.223,85.386 81.626,86.073 81.925,86.424 L101.345,86.424 L104.992,78.470 C105.509,77.337 106.846,76.837 107.989,77.358 C109.127,77.876 109.624,79.218 109.104,80.352 L104.852,89.620 C104.485,90.423 103.681,90.938 102.798,90.938 L93.001,90.938 C85.445,92.893 85.903,98.997 85.985,99.697 C85.995,99.780 86.001,116.107 86.001,116.107 C86.192,116.565 86.778,117.469 88.382,117.469 C90.361,117.469 90.524,116.367 90.539,116.243 L90.529,99.970 C90.529,98.720 91.538,97.711 92.789,97.711 L110.828,97.711 C111.957,97.711 112.489,97.307 112.795,97.004 C113.817,95.977 114.022,93.986 114.019,93.506 L114.042,76.118 C113.807,75.116 112.531,70.352 109.306,68.085 ZM97.076,53.078 C95.671,53.078 94.532,51.941 94.532,50.539 C94.532,49.137 95.671,48.001 97.076,48.001 C98.481,48.001 99.620,49.137 99.620,50.539 C99.620,51.941 98.481,53.078 97.076,53.078 ZM38.399,48.001 C39.804,48.001 40.943,49.137 40.943,50.539 C40.943,51.941 39.804,53.078 38.399,53.078 C36.994,53.078 35.856,51.941 35.856,50.539 C35.856,49.137 36.994,48.001 38.399,48.001 ZM63.089,16.190 C61.841,16.190 60.828,15.181 60.828,13.932 C60.828,12.684 61.841,11.675 63.089,11.675 L65.354,11.675 C66.603,11.675 67.617,12.684 67.617,13.932 C67.617,15.183 66.603,16.190 65.354,16.190 L63.089,16.190 ZM72.312,16.190 C71.062,16.190 70.048,15.181 70.048,13.932 C70.048,12.684 71.062,11.675 72.312,11.675 L75.792,11.675 C77.040,11.675 78.055,12.684 78.055,13.932 C78.055,15.183 77.040,16.190 75.792,16.190 L72.312,16.190 ZM80.484,13.932 C80.484,12.684 81.496,11.675 82.748,11.675 L85.009,11.675 C86.261,11.675 87.271,12.684 87.271,13.932 C87.271,15.181 86.261,16.190 85.009,16.190 L82.748,16.190 C81.496,16.190 80.484,15.181 80.484,13.932 ZM58.856,52.562 L65.642,52.562 C66.894,52.562 67.906,53.570 67.906,54.820 C67.906,56.068 66.894,57.076 65.642,57.076 L58.856,57.076 C57.604,57.076 56.594,56.068 56.594,54.820 C56.594,53.569 57.606,52.562 58.856,52.562 ZM58.856,43.531 L74.690,43.531 C75.941,43.531 76.953,44.539 76.953,45.787 C76.953,47.036 75.941,48.045 74.692,48.045 L58.856,48.045 C57.604,48.045 56.594,47.036 56.594,45.787 C56.594,44.539 57.606,43.531 58.856,43.531 ZM89.032,27.370 L85.880,27.370 C84.629,27.370 83.617,26.362 83.617,25.113 C83.617,23.864 84.629,22.856 85.880,22.856 L89.032,22.856 C90.902,22.856 92.427,21.335 92.427,19.465 L92.427,7.896 C92.427,6.029 90.904,4.510 89.032,4.510 L58.337,4.510 C56.462,4.510 54.938,6.027 54.938,7.896 L54.938,19.464 C54.938,21.334 56.462,22.854 58.337,22.854 L73.820,22.854 C74.381,22.854 74.926,23.064 75.340,23.441 L83.201,30.586 C84.126,31.426 84.194,32.853 83.351,33.774 C82.907,34.266 82.293,34.513 81.681,34.513 C81.137,34.513 80.588,34.321 80.156,33.923 L72.942,27.370 L58.337,27.370 C53.969,27.370 50.415,23.827 50.415,19.465 L50.415,7.896 C50.415,3.540 53.968,-0.007 58.337,-0.007 L89.032,-0.007 C93.399,-0.007 96.955,3.540 96.955,7.896 L96.955,19.465 C96.955,23.827 93.399,27.370 89.032,27.370 ZM41.243,26.537 C40.834,27.297 40.056,27.728 39.250,27.728 C38.888,27.728 38.520,27.640 38.181,27.458 C37.079,26.869 36.668,25.499 37.258,24.398 L40.298,18.754 C40.890,17.658 42.267,17.244 43.361,17.837 C44.464,18.427 44.874,19.796 44.283,20.893 L41.243,26.537 ZM24.924,25.471 C23.671,25.471 22.662,24.460 22.662,23.213 L22.662,14.181 C22.662,12.935 23.671,11.924 24.924,11.924 C26.175,11.924 27.185,12.935 27.185,14.181 L27.185,23.213 C27.185,24.463 26.175,25.471 24.924,25.471 ZM19.128,27.305 C18.730,27.592 18.266,27.731 17.813,27.731 C17.106,27.731 16.413,27.402 15.972,26.787 L11.914,21.142 C11.185,20.129 11.420,18.718 12.433,17.993 C13.451,17.261 14.863,17.499 15.593,18.512 L19.647,24.156 C20.377,25.170 20.145,26.580 19.128,27.305 Z"/>
</svg>