<svg 
 xmlns="http://www.w3.org/2000/svg"
 xmlns:xlink="http://www.w3.org/1999/xlink"
 width="134px" height="128px">
<path fill-rule="evenodd"  fill-opacity="0" fill="rgb(255, 216, 57)"
 d="M-0.000,2.000 L132.000,2.000 L132.000,123.999 L-0.000,123.999 L-0.000,2.000 Z"/>
<path fill-rule="evenodd"  stroke="rgb(26, 25, 21)" stroke-width="4px" stroke-linecap="butt" stroke-linejoin="miter" fill="none"
 d="M21.000,101.000 L112.000,101.000 C115.313,101.000 118.000,103.686 118.000,107.000 C118.000,110.314 115.313,113.000 112.000,113.000 L21.000,113.000 C17.686,113.000 15.000,110.314 15.000,107.000 C15.000,103.686 17.686,101.000 21.000,101.000 Z"/>
<path fill-rule="evenodd"  stroke="rgb(26, 25, 21)" stroke-width="4px" stroke-linecap="butt" stroke-linejoin="miter" fill="none"
 d="M53.000,17.000 L80.000,17.000 C96.568,17.000 110.000,30.431 110.000,47.000 L110.000,104.000 L23.000,104.000 L23.000,47.000 C23.000,30.431 36.431,17.000 53.000,17.000 Z"/>
<path fill-rule="evenodd"  stroke="rgb(26, 25, 21)" stroke-width="4px" stroke-linecap="butt" stroke-linejoin="miter" fill="none"
 d="M61.000,5.000 L72.000,5.000 C78.627,5.000 84.000,10.372 84.000,17.000 L84.000,21.000 L49.000,21.000 L49.000,17.000 C49.000,10.372 54.373,5.000 61.000,5.000 Z"/>
<path fill-rule="evenodd"  stroke="rgb(26, 25, 21)" stroke-width="4px" stroke-linecap="butt" stroke-linejoin="miter" fill="none"
 d="M66.500,2.000 C68.985,2.000 71.000,4.014 71.000,6.500 C71.000,8.985 68.985,8.000 66.500,8.000 C64.014,8.000 62.000,8.985 62.000,6.500 C62.000,4.014 64.014,2.000 66.500,2.000 Z"/>
<path fill-rule="evenodd"  stroke="rgb(26, 25, 21)" stroke-width="4px" stroke-linecap="butt" stroke-linejoin="miter" fill="none"
 d="M28.500,109.000 C32.642,109.000 36.000,112.358 36.000,116.500 C36.000,120.642 32.642,123.999 28.500,123.999 C24.358,123.999 21.000,120.642 21.000,116.500 C21.000,112.358 24.358,109.000 28.500,109.000 Z"/>
<path fill-rule="evenodd"  stroke="rgb(26, 25, 21)" stroke-width="4px" stroke-linecap="butt" stroke-linejoin="miter" fill="none"
 d="M105.500,109.000 C109.642,109.000 113.000,112.358 113.000,116.500 C113.000,120.642 109.642,123.999 105.500,123.999 C101.358,123.999 98.000,120.642 98.000,116.500 C98.000,112.358 101.358,109.000 105.500,109.000 Z"/>
<path fill-rule="evenodd"  stroke="rgb(26, 25, 21)" stroke-width="4px" stroke-linecap="butt" stroke-linejoin="miter" fill="none"
 d="M44.000,56.000 L88.000,56.000 C93.523,56.000 98.000,60.477 98.000,66.000 L98.000,94.000 C98.000,99.523 93.523,104.000 88.000,104.000 L44.000,104.000 C38.477,104.000 34.000,99.523 34.000,94.000 L34.000,66.000 C34.000,60.477 38.477,56.000 44.000,56.000 Z"/>
<path fill-rule="evenodd"  stroke="rgb(26, 25, 21)" stroke-width="4px" stroke-linecap="butt" stroke-linejoin="miter" fill="none"
 d="M46.000,67.000 C47.104,67.000 48.000,67.895 48.000,69.000 L48.000,93.000 C48.000,94.104 47.104,95.000 46.000,95.000 C44.895,95.000 44.000,94.104 44.000,93.000 L44.000,69.000 C44.000,67.895 44.895,67.000 46.000,67.000 Z"/>
<path fill-rule="evenodd"  stroke="rgb(26, 25, 21)" stroke-width="4px" stroke-linecap="butt" stroke-linejoin="miter" fill="none"
 d="M53.000,67.000 C54.104,67.000 55.000,67.895 55.000,69.000 L55.000,93.000 C55.000,94.104 54.104,95.000 53.000,95.000 C51.895,95.000 51.000,94.104 51.000,93.000 L51.000,69.000 C51.000,67.895 51.895,67.000 53.000,67.000 Z"/>
<path fill-rule="evenodd"  stroke="rgb(26, 25, 21)" stroke-width="4px" stroke-linecap="butt" stroke-linejoin="miter" fill="none"
 d="M80.000,67.000 C81.104,67.000 82.000,67.895 82.000,69.000 L82.000,93.000 C82.000,94.104 81.104,95.000 80.000,95.000 C78.895,95.000 78.000,94.104 78.000,93.000 L78.000,69.000 C78.000,67.895 78.895,67.000 80.000,67.000 Z"/>
<path fill-rule="evenodd"  stroke="rgb(26, 25, 21)" stroke-width="4px" stroke-linecap="butt" stroke-linejoin="miter" fill="none"
 d="M87.000,67.000 C88.104,67.000 89.000,67.895 89.000,69.000 L89.000,93.000 C89.000,94.104 88.104,95.000 87.000,95.000 C85.895,95.000 85.000,94.104 85.000,93.000 L85.000,69.000 C85.000,67.895 85.895,67.000 87.000,67.000 Z"/>
<path fill-rule="evenodd"  stroke="rgb(26, 25, 21)" stroke-width="4px" stroke-linecap="butt" stroke-linejoin="miter" fill="none"
 d="M63.500,43.000 L69.500,43.000 C74.747,43.000 79.000,47.253 79.000,52.500 L79.000,55.499 C79.000,57.985 76.985,60.000 74.500,60.000 L58.500,60.000 C56.015,60.000 54.000,57.985 54.000,55.499 L54.000,52.500 C54.000,47.253 58.253,43.000 63.500,43.000 Z"/>
</svg>