<svg 
 xmlns="http://www.w3.org/2000/svg"
 xmlns:xlink="http://www.w3.org/1999/xlink"
 width="132px" height="122px">
<path fill-rule="evenodd"  fill-opacity="0" fill="rgb(255, 216, 57)"
 d="M-0.000,-0.000 L132.000,-0.000 L132.000,121.999 L-0.000,121.999 L-0.000,-0.000 Z"/>
<path fill-rule="evenodd"  fill="rgb(0, 0, 0)"
 d="M124.764,29.817 C124.148,29.893 123.458,29.918 122.816,29.918 C121.689,29.918 120.715,29.840 120.555,29.826 C119.155,29.707 118.117,28.474 118.237,27.072 C118.354,25.670 119.592,24.613 120.984,24.744 C121.521,24.788 123.136,24.879 124.129,24.755 C125.500,24.586 126.798,25.570 126.972,26.969 C127.146,28.367 126.159,29.641 124.764,29.817 ZM116.552,18.072 C116.135,18.337 115.665,18.463 115.203,18.463 C114.356,18.463 113.530,18.041 113.046,17.270 C112.298,16.076 112.656,14.502 113.845,13.754 C114.593,13.283 115.793,11.626 116.371,10.610 C117.067,9.388 118.622,8.962 119.842,9.660 C121.062,10.359 121.485,11.917 120.789,13.140 C120.453,13.728 118.672,16.738 116.552,18.072 ZM108.148,11.559 C108.323,12.955 107.333,14.230 105.939,14.407 C105.834,14.419 105.727,14.425 105.619,14.425 C104.358,14.425 103.259,13.482 103.101,12.192 C102.890,10.522 103.065,7.400 103.083,7.051 C103.165,5.646 104.343,4.535 105.774,4.655 C107.175,4.737 108.243,5.943 108.164,7.351 C108.097,8.494 108.034,10.647 108.148,11.559 ZM115.673,21.233 C117.734,24.320 118.305,27.974 117.158,30.767 C115.524,34.745 110.474,39.038 105.163,39.038 C102.608,39.038 98.941,38.069 95.966,33.451 C93.640,29.833 92.954,26.522 93.938,23.617 C95.461,19.099 100.458,17.297 102.336,16.617 C107.325,14.824 112.667,16.737 115.673,21.233 ZM98.758,25.251 C98.296,26.612 98.797,28.440 100.244,30.686 C101.630,32.845 103.287,33.938 105.163,33.938 C108.377,33.939 111.577,30.961 112.452,28.827 C112.944,27.627 112.541,25.716 111.444,24.073 C110.830,23.153 109.093,21.015 106.234,21.015 C105.530,21.015 104.797,21.151 104.060,21.416 C102.813,21.868 99.494,23.065 98.758,25.251 ZM97.288,18.140 C96.895,18.360 96.470,18.463 96.051,18.463 C95.159,18.463 94.295,17.993 93.827,17.157 C92.998,15.667 91.101,14.494 90.439,14.166 C89.183,13.546 88.658,12.021 89.274,10.757 C89.886,9.495 91.396,8.962 92.662,9.579 C93.050,9.767 96.505,11.507 98.270,14.670 C98.956,15.899 98.515,17.453 97.288,18.140 ZM91.005,27.263 C91.183,28.662 90.197,29.935 88.800,30.111 C88.394,30.162 87.980,30.182 87.584,30.182 C86.162,30.182 84.930,29.921 84.759,29.884 C83.386,29.582 82.519,28.222 82.819,26.846 C83.121,25.470 84.488,24.597 85.849,24.903 C86.201,24.979 87.325,25.160 88.167,25.050 C89.541,24.872 90.832,25.863 91.005,27.263 ZM43.455,25.235 C42.673,37.273 38.083,108.488 38.089,119.454 C38.090,120.860 36.951,122.005 35.547,122.007 L35.545,122.007 C34.141,122.007 33.003,120.866 33.002,119.456 C32.996,108.708 37.161,43.722 38.244,26.988 C29.850,29.800 19.983,33.052 8.329,36.841 C8.070,36.924 7.805,36.966 7.543,36.966 C6.826,36.966 6.126,36.661 5.635,36.101 C4.964,35.340 4.809,34.250 5.240,33.331 C5.691,32.367 16.561,9.645 38.561,2.626 C44.046,0.878 50.420,-0.009 57.508,-0.009 C69.121,-0.009 82.082,2.604 84.697,5.473 C85.314,6.153 85.615,6.995 85.539,7.838 C85.387,9.521 85.224,11.134 43.455,25.235 ZM57.509,5.090 C50.944,5.090 45.090,5.895 40.104,7.488 C26.587,11.799 17.523,23.070 13.064,29.930 C21.499,27.164 30.997,24.007 40.173,20.899 C40.191,20.895 40.206,20.889 40.224,20.883 C55.927,15.567 70.675,10.404 77.487,7.620 C73.274,6.425 65.893,5.090 57.509,5.090 ZM90.641,43.439 C90.247,43.661 89.817,43.767 89.395,43.767 C88.509,43.767 87.643,43.300 87.177,42.468 C86.489,41.242 86.921,39.688 88.144,38.995 C89.473,38.242 91.226,36.947 91.619,36.294 C92.340,35.084 93.905,34.694 95.107,35.415 C96.315,36.138 96.707,37.706 95.984,38.913 C94.688,41.084 91.307,43.065 90.641,43.439 ZM105.983,50.312 C105.875,50.325 105.769,50.331 105.663,50.331 C104.398,50.331 103.305,49.389 103.141,48.098 C102.933,46.428 103.107,43.307 103.127,42.957 C103.209,41.551 104.378,40.460 105.814,40.562 C107.217,40.644 108.288,41.849 108.207,43.256 C108.139,44.399 108.076,46.552 108.190,47.464 C108.366,48.861 107.379,50.136 105.983,50.312 ZM120.735,43.767 C119.175,43.767 116.114,42.906 115.148,39.595 C114.753,38.244 115.526,36.827 116.874,36.432 C118.226,36.029 119.635,36.811 120.030,38.162 C120.181,38.676 120.713,38.690 120.716,38.669 C122.147,38.615 123.284,39.757 123.314,41.166 C123.341,42.573 122.226,43.739 120.821,43.768 C120.795,43.767 120.765,43.767 120.735,43.767 ZM48.101,59.759 C48.734,59.936 49.344,60.177 49.943,60.447 C49.499,59.954 49.091,59.416 48.747,58.806 C45.917,53.789 46.814,50.083 48.062,47.858 C50.426,43.644 55.418,41.985 58.198,41.897 L58.506,41.892 C60.411,41.892 66.818,42.580 69.242,51.414 C69.833,53.576 69.284,55.913 67.699,57.998 C65.303,61.147 60.824,63.347 56.806,63.347 C55.695,63.346 54.661,63.170 53.701,62.863 C55.782,64.636 57.611,66.965 59.213,69.620 C59.488,69.022 59.846,68.444 60.307,67.901 C62.809,64.955 67.725,63.436 70.752,63.874 C74.016,64.343 76.082,67.093 77.740,69.303 C78.261,69.995 78.798,70.713 79.238,71.157 C81.094,71.448 87.397,69.924 91.342,68.915 L88.005,62.216 L93.347,60.600 L90.982,54.302 L86.872,53.295 C86.189,53.127 85.772,52.437 85.938,51.754 C86.108,51.068 86.798,50.647 87.476,50.817 L92.890,52.145 L95.790,59.862 L99.462,58.750 L98.937,67.262 C101.282,67.302 103.363,68.559 104.375,70.693 C105.607,73.296 104.836,76.247 102.417,78.210 C99.975,80.193 93.439,81.978 84.305,83.986 C84.978,85.045 85.898,85.993 86.997,85.957 C88.554,85.849 92.084,85.525 96.204,85.147 C101.729,84.645 108.297,84.045 112.608,83.731 C118.045,83.366 120.794,86.831 121.566,88.958 C123.099,93.177 126.215,105.559 126.874,111.713 C127.303,115.750 124.163,119.647 119.870,120.404 C119.415,120.489 118.941,120.527 118.454,120.527 C117.548,120.527 116.604,120.375 115.672,120.040 C115.447,120.993 114.687,121.772 113.666,121.962 C113.505,121.992 113.351,122.007 113.197,122.007 C111.994,122.007 110.927,121.150 110.698,119.922 L107.028,100.150 L68.753,105.795 L62.951,120.399 C62.553,121.400 61.597,122.007 60.586,122.007 C60.272,122.007 59.954,121.948 59.645,121.825 C58.339,121.305 57.703,119.821 58.222,118.511 L64.322,103.160 C62.906,92.843 57.283,67.623 46.734,64.671 C45.380,64.294 44.589,62.889 44.967,61.531 C45.345,60.175 46.747,59.380 48.101,59.759 ZM69.086,100.589 L71.921,100.171 C70.704,99.477 69.584,98.608 68.571,97.550 C68.781,98.703 68.951,99.728 69.086,100.589 ZM63.773,72.740 L63.939,73.279 C65.066,76.915 68.498,87.982 69.990,90.816 C71.565,93.809 74.496,97.680 81.686,96.962 C90.948,96.012 108.721,94.736 108.901,94.724 C108.953,94.721 109.004,94.729 109.056,94.729 C109.151,94.728 109.244,94.730 109.337,94.740 C109.371,94.744 109.404,94.750 109.438,94.756 C110.134,94.857 110.756,95.244 111.157,95.817 C111.186,95.857 111.219,95.892 111.245,95.934 C111.270,95.974 111.287,96.019 111.310,96.061 C111.366,96.163 111.420,96.266 111.462,96.378 C111.478,96.420 111.486,96.465 111.500,96.508 C111.530,96.605 111.564,96.699 111.583,96.800 L114.112,110.428 C115.000,113.965 116.763,115.773 118.991,115.383 C120.486,115.118 121.979,113.797 121.815,112.257 C121.211,106.616 118.237,94.697 116.784,90.704 C116.702,90.493 115.870,88.597 112.975,88.818 C108.689,89.130 102.159,89.725 96.666,90.228 C92.500,90.610 88.924,90.935 87.349,91.045 C83.222,91.358 80.520,88.094 79.107,85.126 C73.355,86.341 70.213,81.733 68.855,79.723 L68.526,79.239 C67.716,78.089 67.990,76.497 69.136,75.685 C70.285,74.871 71.874,75.148 72.683,76.298 L73.068,76.864 C74.823,79.464 76.126,80.674 78.323,80.086 C78.760,79.969 79.749,79.755 81.080,79.469 C85.017,78.623 96.991,76.050 99.211,74.245 C99.539,73.980 100.047,73.453 99.778,72.880 C99.613,72.541 99.177,72.228 98.446,72.382 C97.607,72.557 96.249,72.913 94.627,73.332 C83.448,76.249 78.412,77.159 76.169,75.252 C75.261,74.483 74.489,73.457 73.672,72.369 C72.579,70.910 71.213,69.094 70.033,68.925 C68.669,68.734 65.531,69.617 64.181,71.210 C63.612,71.880 63.648,72.343 63.773,72.740 ZM53.177,56.294 C53.917,57.606 55.104,58.245 56.806,58.245 C56.807,58.245 56.807,58.245 56.807,58.245 C59.262,58.245 62.206,56.810 63.654,54.904 C64.079,54.345 64.543,53.521 64.336,52.764 C62.957,47.742 60.091,46.992 58.506,46.992 C56.661,47.048 53.681,48.245 52.496,50.356 C51.613,51.930 51.841,53.928 53.177,56.294 Z"/>
</svg>