<svg 
 xmlns="http://www.w3.org/2000/svg"
 xmlns:xlink="http://www.w3.org/1999/xlink"
 width="24px" height="24px">
<path fill-rule="evenodd"  fill="rgb(209, 207, 199)"
 d="M6.000,3.000 C6.000,3.552 5.552,4.000 5.000,4.000 C4.447,4.000 4.000,3.552 4.000,3.000 L4.000,1.000 C4.000,0.448 4.447,-0.000 5.000,-0.000 C5.552,-0.000 6.000,0.448 6.000,1.000 L6.000,3.000 ZM20.000,1.000 C20.000,0.448 19.552,-0.000 19.000,-0.000 C18.447,-0.000 17.999,0.448 17.999,1.000 L17.999,3.000 C17.999,3.552 18.447,4.000 19.000,4.000 C19.552,4.000 20.000,3.552 20.000,3.000 L20.000,1.000 ZM21.999,8.000 L2.000,8.000 L2.000,22.000 L21.999,22.000 L21.999,8.000 ZM23.999,2.000 L23.999,24.000 L-0.000,24.000 L-0.000,2.000 L3.000,2.000 L3.000,3.000 C3.000,4.103 3.897,5.000 5.000,5.000 C6.102,5.000 7.000,4.103 7.000,3.000 L7.000,2.000 L17.000,2.000 L17.000,3.000 C17.000,4.103 17.897,5.000 19.000,5.000 C20.102,5.000 21.000,4.103 21.000,3.000 L21.000,2.000 L23.999,2.000 ZM7.999,10.000 L4.000,10.000 L4.000,14.000 L7.999,14.000 L7.999,10.000 ZM13.999,16.000 L9.999,16.000 L9.999,20.000 L13.999,20.000 L13.999,16.000 ZM7.999,16.000 L4.000,16.000 L4.000,20.000 L7.999,20.000 L7.999,16.000 ZM20.000,10.000 L15.999,10.000 L15.999,14.000 L20.000,14.000 L20.000,10.000 ZM13.999,10.000 L9.999,10.000 L9.999,14.000 L13.999,14.000 L13.999,10.000 ZM20.000,20.000 L15.999,20.000 L15.999,16.000 L20.000,16.000 L20.000,20.000 Z"/>
</svg>